<mxfile host="app.diagrams.net" modified="2020-09-01T08:22:29.803Z" agent="5.0 (Windows NT 10.0; Win64; x64) AppleWebKit/537.36 (KHTML, like Gecko) Chrome/84.0.4147.135 Safari/537.36" etag="rMs-n1bRsespIV5SwHwU" version="13.6.6" type="github">
  <diagram id="-mS7E-h-gd0SV2IXoJeC" name="Page-1">
    <mxGraphModel dx="2480" dy="1174" grid="0" gridSize="10" guides="1" tooltips="1" connect="1" arrows="1" fold="1" page="1" pageScale="1" pageWidth="850" pageHeight="1100" math="0" shadow="0">
      <root>
        <mxCell id="0" />
        <mxCell id="1" parent="0" />
        <mxCell id="p3s3s-TY827bSZmrgXS7-29" style="edgeStyle=none;rounded=0;orthogonalLoop=1;jettySize=auto;html=1;endArrow=none;endFill=0;entryX=0.5;entryY=0;entryDx=0;entryDy=0;" parent="1" source="p3s3s-TY827bSZmrgXS7-3" target="p3s3s-TY827bSZmrgXS7-12" edge="1">
          <mxGeometry relative="1" as="geometry" />
        </mxCell>
        <mxCell id="p3s3s-TY827bSZmrgXS7-3" value="kapasitas jumlah maksimum Sumber Daya Manusia" style="ellipse;whiteSpace=wrap;html=1;" parent="1" vertex="1">
          <mxGeometry x="700" y="80" width="120" height="80" as="geometry" />
        </mxCell>
        <mxCell id="p3s3s-TY827bSZmrgXS7-30" style="edgeStyle=none;rounded=0;orthogonalLoop=1;jettySize=auto;html=1;entryX=0.5;entryY=0;entryDx=0;entryDy=0;endArrow=none;endFill=0;" parent="1" source="p3s3s-TY827bSZmrgXS7-8" target="p3s3s-TY827bSZmrgXS7-12" edge="1">
          <mxGeometry relative="1" as="geometry" />
        </mxCell>
        <mxCell id="p3s3s-TY827bSZmrgXS7-8" value="Id_ruang" style="ellipse;whiteSpace=wrap;html=1;" parent="1" vertex="1">
          <mxGeometry x="660" y="40" width="90" height="40" as="geometry" />
        </mxCell>
        <mxCell id="p3s3s-TY827bSZmrgXS7-17" value="" style="edgeStyle=orthogonalEdgeStyle;rounded=0;orthogonalLoop=1;jettySize=auto;html=1;" parent="1" source="XhqUBXlppfxrFsxrk5XG-2" target="p3s3s-TY827bSZmrgXS7-16" edge="1">
          <mxGeometry relative="1" as="geometry" />
        </mxCell>
        <mxCell id="p3s3s-TY827bSZmrgXS7-34" value="" style="edgeStyle=orthogonalEdgeStyle;rounded=0;orthogonalLoop=1;jettySize=auto;html=1;entryX=0;entryY=0.5;entryDx=0;entryDy=0;endArrow=classic;endFill=1;" parent="1" source="p3s3s-TY827bSZmrgXS7-10" target="p3s3s-TY827bSZmrgXS7-12" edge="1">
          <mxGeometry relative="1" as="geometry">
            <Array as="points">
              <mxPoint x="540" y="210" />
              <mxPoint x="540" y="210" />
            </Array>
          </mxGeometry>
        </mxCell>
        <mxCell id="p3s3s-TY827bSZmrgXS7-10" value="Civitas" style="rounded=0;whiteSpace=wrap;html=1;" parent="1" vertex="1">
          <mxGeometry x="360" y="180" width="120" height="60" as="geometry" />
        </mxCell>
        <mxCell id="p3s3s-TY827bSZmrgXS7-12" value="Ruang" style="rounded=0;whiteSpace=wrap;html=1;" parent="1" vertex="1">
          <mxGeometry x="630" y="180" width="120" height="60" as="geometry" />
        </mxCell>
        <mxCell id="p3s3s-TY827bSZmrgXS7-24" style="rounded=0;orthogonalLoop=1;jettySize=auto;html=1;endArrow=none;endFill=0;" parent="1" source="p3s3s-TY827bSZmrgXS7-13" target="p3s3s-TY827bSZmrgXS7-10" edge="1">
          <mxGeometry relative="1" as="geometry" />
        </mxCell>
        <mxCell id="p3s3s-TY827bSZmrgXS7-28" style="edgeStyle=none;rounded=0;orthogonalLoop=1;jettySize=auto;html=1;entryX=0.5;entryY=0;entryDx=0;entryDy=0;endArrow=none;endFill=0;" parent="1" source="p3s3s-TY827bSZmrgXS7-14" target="p3s3s-TY827bSZmrgXS7-10" edge="1">
          <mxGeometry relative="1" as="geometry" />
        </mxCell>
        <mxCell id="p3s3s-TY827bSZmrgXS7-14" value="Usia" style="ellipse;whiteSpace=wrap;html=1;" parent="1" vertex="1">
          <mxGeometry x="285" y="80" width="90" height="40" as="geometry" />
        </mxCell>
        <mxCell id="p3s3s-TY827bSZmrgXS7-26" style="edgeStyle=none;rounded=0;orthogonalLoop=1;jettySize=auto;html=1;endArrow=none;endFill=0;" parent="1" source="p3s3s-TY827bSZmrgXS7-15" edge="1">
          <mxGeometry relative="1" as="geometry">
            <mxPoint x="420" y="180" as="targetPoint" />
          </mxGeometry>
        </mxCell>
        <mxCell id="p3s3s-TY827bSZmrgXS7-15" value="Status_Sehat" style="ellipse;whiteSpace=wrap;html=1;" parent="1" vertex="1">
          <mxGeometry x="320" y="30" width="90" height="40" as="geometry" />
        </mxCell>
        <mxCell id="p3s3s-TY827bSZmrgXS7-16" value="Persetujuan Medik" style="rounded=0;whiteSpace=wrap;html=1;" parent="1" vertex="1">
          <mxGeometry x="360" y="360" width="120" height="60" as="geometry" />
        </mxCell>
        <mxCell id="p3s3s-TY827bSZmrgXS7-27" style="edgeStyle=none;rounded=0;orthogonalLoop=1;jettySize=auto;html=1;endArrow=none;endFill=0;" parent="1" source="p3s3s-TY827bSZmrgXS7-21" edge="1">
          <mxGeometry relative="1" as="geometry">
            <mxPoint x="420" y="180" as="targetPoint" />
          </mxGeometry>
        </mxCell>
        <mxCell id="p3s3s-TY827bSZmrgXS7-21" value="lokasi" style="ellipse;whiteSpace=wrap;html=1;" parent="1" vertex="1">
          <mxGeometry x="420" y="30" width="90" height="40" as="geometry" />
        </mxCell>
        <mxCell id="p3s3s-TY827bSZmrgXS7-25" style="rounded=0;orthogonalLoop=1;jettySize=auto;html=1;endArrow=none;endFill=0;exitX=0.5;exitY=1;exitDx=0;exitDy=0;entryX=0.5;entryY=0;entryDx=0;entryDy=0;" parent="1" source="p3s3s-TY827bSZmrgXS7-9" target="p3s3s-TY827bSZmrgXS7-10" edge="1">
          <mxGeometry relative="1" as="geometry">
            <mxPoint x="430" y="170" as="sourcePoint" />
            <mxPoint x="430" y="190" as="targetPoint" />
          </mxGeometry>
        </mxCell>
        <mxCell id="p3s3s-TY827bSZmrgXS7-13" value="Status" style="ellipse;whiteSpace=wrap;html=1;" parent="1" vertex="1">
          <mxGeometry x="375" y="120" width="90" height="40" as="geometry" />
        </mxCell>
        <mxCell id="XhqUBXlppfxrFsxrk5XG-1" value="bekerja di" style="rhombus;whiteSpace=wrap;html=1;" vertex="1" parent="1">
          <mxGeometry x="510" y="180" width="80" height="60" as="geometry" />
        </mxCell>
        <mxCell id="XhqUBXlppfxrFsxrk5XG-2" value="membuat" style="rhombus;whiteSpace=wrap;html=1;" vertex="1" parent="1">
          <mxGeometry x="380" y="270" width="80" height="60" as="geometry" />
        </mxCell>
        <mxCell id="XhqUBXlppfxrFsxrk5XG-3" value="" style="edgeStyle=orthogonalEdgeStyle;rounded=0;orthogonalLoop=1;jettySize=auto;html=1;endArrow=none;endFill=0;" edge="1" parent="1" source="p3s3s-TY827bSZmrgXS7-10" target="XhqUBXlppfxrFsxrk5XG-2">
          <mxGeometry relative="1" as="geometry">
            <mxPoint x="420" y="240" as="sourcePoint" />
            <mxPoint x="420" y="310" as="targetPoint" />
          </mxGeometry>
        </mxCell>
        <mxCell id="p3s3s-TY827bSZmrgXS7-9" value="Jenjang" style="ellipse;whiteSpace=wrap;html=1;" parent="1" vertex="1">
          <mxGeometry x="445" y="80" width="90" height="40" as="geometry" />
        </mxCell>
        <mxCell id="XhqUBXlppfxrFsxrk5XG-4" value="Civitas" style="shape=table;html=1;whiteSpace=wrap;startSize=30;container=1;collapsible=0;childLayout=tableLayout;fixedRows=1;rowLines=0;fontStyle=1;align=center;" vertex="1" parent="1">
          <mxGeometry x="140" y="512" width="180" height="147.75" as="geometry" />
        </mxCell>
        <mxCell id="XhqUBXlppfxrFsxrk5XG-5" value="" style="shape=partialRectangle;html=1;whiteSpace=wrap;collapsible=0;dropTarget=0;pointerEvents=0;fillColor=none;top=0;left=0;bottom=1;right=0;points=[[0,0.5],[1,0.5]];portConstraint=eastwest;" vertex="1" parent="XhqUBXlppfxrFsxrk5XG-4">
          <mxGeometry y="30" width="180" height="30" as="geometry" />
        </mxCell>
        <mxCell id="XhqUBXlppfxrFsxrk5XG-6" value="PK" style="shape=partialRectangle;html=1;whiteSpace=wrap;connectable=0;fillColor=none;top=0;left=0;bottom=0;right=0;overflow=hidden;" vertex="1" parent="XhqUBXlppfxrFsxrk5XG-5">
          <mxGeometry width="40" height="30" as="geometry" />
        </mxCell>
        <mxCell id="XhqUBXlppfxrFsxrk5XG-7" value="Id_Civitas" style="shape=partialRectangle;html=1;whiteSpace=wrap;connectable=0;fillColor=none;top=0;left=0;bottom=0;right=0;align=left;spacingLeft=6;overflow=hidden;" vertex="1" parent="XhqUBXlppfxrFsxrk5XG-5">
          <mxGeometry x="40" width="140" height="30" as="geometry" />
        </mxCell>
        <mxCell id="XhqUBXlppfxrFsxrk5XG-8" value="" style="shape=partialRectangle;html=1;whiteSpace=wrap;collapsible=0;dropTarget=0;pointerEvents=0;fillColor=none;top=0;left=0;bottom=0;right=0;points=[[0,0.5],[1,0.5]];portConstraint=eastwest;" vertex="1" parent="XhqUBXlppfxrFsxrk5XG-4">
          <mxGeometry y="60" width="180" height="28" as="geometry" />
        </mxCell>
        <mxCell id="XhqUBXlppfxrFsxrk5XG-9" value="" style="shape=partialRectangle;html=1;whiteSpace=wrap;connectable=0;fillColor=none;top=0;left=0;bottom=0;right=0;overflow=hidden;" vertex="1" parent="XhqUBXlppfxrFsxrk5XG-8">
          <mxGeometry width="40" height="28" as="geometry" />
        </mxCell>
        <mxCell id="XhqUBXlppfxrFsxrk5XG-10" value="Status" style="shape=partialRectangle;html=1;whiteSpace=wrap;connectable=0;fillColor=none;top=0;left=0;bottom=0;right=0;align=left;spacingLeft=6;overflow=hidden;" vertex="1" parent="XhqUBXlppfxrFsxrk5XG-8">
          <mxGeometry x="40" width="140" height="28" as="geometry" />
        </mxCell>
        <mxCell id="XhqUBXlppfxrFsxrk5XG-11" value="" style="shape=partialRectangle;html=1;whiteSpace=wrap;collapsible=0;dropTarget=0;pointerEvents=0;fillColor=none;top=0;left=0;bottom=0;right=0;points=[[0,0.5],[1,0.5]];portConstraint=eastwest;" vertex="1" parent="XhqUBXlppfxrFsxrk5XG-4">
          <mxGeometry y="88" width="180" height="30" as="geometry" />
        </mxCell>
        <mxCell id="XhqUBXlppfxrFsxrk5XG-12" value="" style="shape=partialRectangle;html=1;whiteSpace=wrap;connectable=0;fillColor=none;top=0;left=0;bottom=0;right=0;overflow=hidden;" vertex="1" parent="XhqUBXlppfxrFsxrk5XG-11">
          <mxGeometry width="40" height="30" as="geometry" />
        </mxCell>
        <mxCell id="XhqUBXlppfxrFsxrk5XG-13" value="Aktivitas" style="shape=partialRectangle;html=1;whiteSpace=wrap;connectable=0;fillColor=none;top=0;left=0;bottom=0;right=0;align=left;spacingLeft=6;overflow=hidden;" vertex="1" parent="XhqUBXlppfxrFsxrk5XG-11">
          <mxGeometry x="40" width="140" height="30" as="geometry" />
        </mxCell>
        <mxCell id="XhqUBXlppfxrFsxrk5XG-34" value="Usia" style="shape=partialRectangle;html=1;whiteSpace=wrap;connectable=0;fillColor=none;top=0;left=0;bottom=0;right=0;align=left;spacingLeft=6;overflow=hidden;" vertex="1" parent="1">
          <mxGeometry x="180" y="627" width="140" height="30" as="geometry" />
        </mxCell>
        <mxCell id="XhqUBXlppfxrFsxrk5XG-35" style="edgeStyle=orthogonalEdgeStyle;rounded=0;orthogonalLoop=1;jettySize=auto;html=1;entryX=0;entryY=0.5;entryDx=0;entryDy=0;endArrow=none;endFill=0;" edge="1" parent="1" source="XhqUBXlppfxrFsxrk5XG-5" target="XhqUBXlppfxrFsxrk5XG-28">
          <mxGeometry relative="1" as="geometry" />
        </mxCell>
        <mxCell id="XhqUBXlppfxrFsxrk5XG-36" style="edgeStyle=orthogonalEdgeStyle;rounded=0;orthogonalLoop=1;jettySize=auto;html=1;entryX=0;entryY=0.5;entryDx=0;entryDy=0;endArrow=none;endFill=0;" edge="1" parent="1" source="XhqUBXlppfxrFsxrk5XG-11" target="XhqUBXlppfxrFsxrk5XG-18">
          <mxGeometry relative="1" as="geometry" />
        </mxCell>
        <mxCell id="XhqUBXlppfxrFsxrk5XG-14" value="Ruang" style="shape=table;html=1;whiteSpace=wrap;startSize=30;container=1;collapsible=0;childLayout=tableLayout;fixedRows=1;rowLines=0;fontStyle=1;align=center;" vertex="1" parent="1">
          <mxGeometry x="397" y="681" width="180" height="153.75" as="geometry" />
        </mxCell>
        <mxCell id="XhqUBXlppfxrFsxrk5XG-15" value="" style="shape=partialRectangle;html=1;whiteSpace=wrap;collapsible=0;dropTarget=0;pointerEvents=0;fillColor=none;top=0;left=0;bottom=1;right=0;points=[[0,0.5],[1,0.5]];portConstraint=eastwest;" vertex="1" parent="XhqUBXlppfxrFsxrk5XG-14">
          <mxGeometry y="30" width="180" height="30" as="geometry" />
        </mxCell>
        <mxCell id="XhqUBXlppfxrFsxrk5XG-16" value="PK" style="shape=partialRectangle;html=1;whiteSpace=wrap;connectable=0;fillColor=none;top=0;left=0;bottom=0;right=0;overflow=hidden;" vertex="1" parent="XhqUBXlppfxrFsxrk5XG-15">
          <mxGeometry width="40" height="30" as="geometry" />
        </mxCell>
        <mxCell id="XhqUBXlppfxrFsxrk5XG-17" value="Id_Ruang" style="shape=partialRectangle;html=1;whiteSpace=wrap;connectable=0;fillColor=none;top=0;left=0;bottom=0;right=0;align=left;spacingLeft=6;overflow=hidden;" vertex="1" parent="XhqUBXlppfxrFsxrk5XG-15">
          <mxGeometry x="40" width="140" height="30" as="geometry" />
        </mxCell>
        <mxCell id="XhqUBXlppfxrFsxrk5XG-18" value="" style="shape=partialRectangle;html=1;whiteSpace=wrap;collapsible=0;dropTarget=0;pointerEvents=0;fillColor=none;top=0;left=0;bottom=0;right=0;points=[[0,0.5],[1,0.5]];portConstraint=eastwest;" vertex="1" parent="XhqUBXlppfxrFsxrk5XG-14">
          <mxGeometry y="60" width="180" height="30" as="geometry" />
        </mxCell>
        <mxCell id="XhqUBXlppfxrFsxrk5XG-19" value="FK" style="shape=partialRectangle;html=1;whiteSpace=wrap;connectable=0;fillColor=none;top=0;left=0;bottom=0;right=0;overflow=hidden;" vertex="1" parent="XhqUBXlppfxrFsxrk5XG-18">
          <mxGeometry width="40" height="30" as="geometry" />
        </mxCell>
        <mxCell id="XhqUBXlppfxrFsxrk5XG-20" value="Aktivitas" style="shape=partialRectangle;html=1;whiteSpace=wrap;connectable=0;fillColor=none;top=0;left=0;bottom=0;right=0;align=left;spacingLeft=6;overflow=hidden;" vertex="1" parent="XhqUBXlppfxrFsxrk5XG-18">
          <mxGeometry x="40" width="140" height="30" as="geometry" />
        </mxCell>
        <mxCell id="XhqUBXlppfxrFsxrk5XG-21" value="" style="shape=partialRectangle;html=1;whiteSpace=wrap;collapsible=0;dropTarget=0;pointerEvents=0;fillColor=none;top=0;left=0;bottom=0;right=0;points=[[0,0.5],[1,0.5]];portConstraint=eastwest;" vertex="1" parent="XhqUBXlppfxrFsxrk5XG-14">
          <mxGeometry y="90" width="180" height="34" as="geometry" />
        </mxCell>
        <mxCell id="XhqUBXlppfxrFsxrk5XG-22" value="" style="shape=partialRectangle;html=1;whiteSpace=wrap;connectable=0;fillColor=none;top=0;left=0;bottom=0;right=0;overflow=hidden;" vertex="1" parent="XhqUBXlppfxrFsxrk5XG-21">
          <mxGeometry width="40" height="34" as="geometry" />
        </mxCell>
        <mxCell id="XhqUBXlppfxrFsxrk5XG-23" value="Kapasitas" style="shape=partialRectangle;html=1;whiteSpace=wrap;connectable=0;fillColor=none;top=0;left=0;bottom=0;right=0;align=left;spacingLeft=6;overflow=hidden;" vertex="1" parent="XhqUBXlppfxrFsxrk5XG-21">
          <mxGeometry x="40" width="140" height="34" as="geometry" />
        </mxCell>
        <mxCell id="XhqUBXlppfxrFsxrk5XG-24" value="Persetujuan_Medik" style="shape=table;html=1;whiteSpace=wrap;startSize=30;container=1;collapsible=0;childLayout=tableLayout;fixedRows=1;rowLines=0;fontStyle=1;align=center;" vertex="1" parent="1">
          <mxGeometry x="397" y="512" width="180" height="150" as="geometry" />
        </mxCell>
        <mxCell id="XhqUBXlppfxrFsxrk5XG-25" value="" style="shape=partialRectangle;html=1;whiteSpace=wrap;collapsible=0;dropTarget=0;pointerEvents=0;fillColor=none;top=0;left=0;bottom=1;right=0;points=[[0,0.5],[1,0.5]];portConstraint=eastwest;" vertex="1" parent="XhqUBXlppfxrFsxrk5XG-24">
          <mxGeometry y="30" width="180" height="30" as="geometry" />
        </mxCell>
        <mxCell id="XhqUBXlppfxrFsxrk5XG-26" value="PK" style="shape=partialRectangle;html=1;whiteSpace=wrap;connectable=0;fillColor=none;top=0;left=0;bottom=0;right=0;overflow=hidden;" vertex="1" parent="XhqUBXlppfxrFsxrk5XG-25">
          <mxGeometry width="40" height="30" as="geometry" />
        </mxCell>
        <mxCell id="XhqUBXlppfxrFsxrk5XG-27" value="Id_Medik" style="shape=partialRectangle;html=1;whiteSpace=wrap;connectable=0;fillColor=none;top=0;left=0;bottom=0;right=0;align=left;spacingLeft=6;overflow=hidden;" vertex="1" parent="XhqUBXlppfxrFsxrk5XG-25">
          <mxGeometry x="40" width="140" height="30" as="geometry" />
        </mxCell>
        <mxCell id="XhqUBXlppfxrFsxrk5XG-28" value="" style="shape=partialRectangle;html=1;whiteSpace=wrap;collapsible=0;dropTarget=0;pointerEvents=0;fillColor=none;top=0;left=0;bottom=0;right=0;points=[[0,0.5],[1,0.5]];portConstraint=eastwest;" vertex="1" parent="XhqUBXlppfxrFsxrk5XG-24">
          <mxGeometry y="60" width="180" height="30" as="geometry" />
        </mxCell>
        <mxCell id="XhqUBXlppfxrFsxrk5XG-29" value="FK" style="shape=partialRectangle;html=1;whiteSpace=wrap;connectable=0;fillColor=none;top=0;left=0;bottom=0;right=0;overflow=hidden;" vertex="1" parent="XhqUBXlppfxrFsxrk5XG-28">
          <mxGeometry width="40" height="30" as="geometry" />
        </mxCell>
        <mxCell id="XhqUBXlppfxrFsxrk5XG-30" value="Id_Civitas" style="shape=partialRectangle;html=1;whiteSpace=wrap;connectable=0;fillColor=none;top=0;left=0;bottom=0;right=0;align=left;spacingLeft=6;overflow=hidden;" vertex="1" parent="XhqUBXlppfxrFsxrk5XG-28">
          <mxGeometry x="40" width="140" height="30" as="geometry" />
        </mxCell>
        <mxCell id="XhqUBXlppfxrFsxrk5XG-31" value="" style="shape=partialRectangle;html=1;whiteSpace=wrap;collapsible=0;dropTarget=0;pointerEvents=0;fillColor=none;top=0;left=0;bottom=0;right=0;points=[[0,0.5],[1,0.5]];portConstraint=eastwest;" vertex="1" parent="XhqUBXlppfxrFsxrk5XG-24">
          <mxGeometry y="90" width="180" height="30" as="geometry" />
        </mxCell>
        <mxCell id="XhqUBXlppfxrFsxrk5XG-32" value="" style="shape=partialRectangle;html=1;whiteSpace=wrap;connectable=0;fillColor=none;top=0;left=0;bottom=0;right=0;overflow=hidden;" vertex="1" parent="XhqUBXlppfxrFsxrk5XG-31">
          <mxGeometry width="40" height="30" as="geometry" />
        </mxCell>
        <mxCell id="XhqUBXlppfxrFsxrk5XG-33" value="Status" style="shape=partialRectangle;html=1;whiteSpace=wrap;connectable=0;fillColor=none;top=0;left=0;bottom=0;right=0;align=left;spacingLeft=6;overflow=hidden;" vertex="1" parent="XhqUBXlppfxrFsxrk5XG-31">
          <mxGeometry x="40" width="140" height="30" as="geometry" />
        </mxCell>
      </root>
    </mxGraphModel>
  </diagram>
</mxfile>
